<?xml version="1.0" encoding="UTF-8"?>
<svg width="83px" height="27px" viewBox="0 0 83 27" version="1.1" xmlns="http://www.w3.org/2000/svg" xmlns:xlink="http://www.w3.org/1999/xlink">
    <!-- Generator: Sketch 52.6 (67491) - http://www.bohemiancoding.com/sketch -->
    <title>Logo</title>
    <desc>Created with Sketch.</desc>
    <defs>
        <path d="M13.1033072,2.27074662 C11.5394348,3.37779923 9.83200621,4.17205141 8.08106619,4.8488841 C5.32936215,6.10963215 2.48682394,6.06221886 0.669187489,10.2517718 C-0.511021675,12.9696035 0.165788262,16.6818415 0.896590546,19.2291126 L1.06460202,19.2291126 C1.04713391,18.957043 1.03315942,18.6534707 1.03315942,18.3212594 C1.03315942,14.5908835 1.89544895,11.527794 4.37941447,9.78973089 C4.37941447,9.78973089 5.40431623,8.93342776 7.43029962,8.2416392 C10.617436,7.15145172 10.8483327,6.87779111 11.6512307,6.25155381 C12.3925138,5.4910319 12.634209,5.04044652 12.6491363,5.01212583 C12.6446898,5.05603882 12.699635,5.94702684 11.801774,6.78678305 C11.2034118,7.34906013 10.1416682,7.93997612 8.30656363,8.62540047 C2.03551144,10.7500887 1.31614283,16.0279199 1.52798339,19.2291126 L1.68741961,19.2291126 C1.97072063,17.0165984 2.26100889,15.1324769 5.45195654,14.0282882 C9.68305086,12.7821778 10.6873085,12.3557764 12.5608429,10.224724 C14.2193607,8.0825342 16.1243377,4.66973187 15.3913122,0.105009303 C14.7176783,0.956221074 13.9338365,1.68460378 13.1033072,2.27074662" id="path-1"></path>
        <linearGradient x1="-19.8680136%" y1="76.8730621%" x2="112.673555%" y2="25.9686409%" id="linearGradient-3">
            <stop stop-color="#B7D234" offset="0%"></stop>
            <stop stop-color="#387F40" offset="100%"></stop>
        </linearGradient>
    </defs>
    <g id="Symbols" stroke="none" stroke-width="1" fill="none" fill-rule="evenodd">
        <g id="mobile/content/top-header" transform="translate(-17.000000, -19.000000)">
            <g id="Group">
                <g id="Icons/logo/veac-logo" transform="translate(17.000000, 19.000000)">
                    <g id="Group-14" transform="translate(0.000000, 0.510811)">
                        <polygon id="Fill-1" fill="#89736E" points="18.2375008 0 18.2375008 0.935453745 20.3493872 0.935453745 13.9225212 18.4349446 7.4574383 0.935453745 9.81789527 0.935453745 9.81789527 0 0 0 0 0.935453745 2.43817543 0.935453745 11.52738 25.5405401 12.6674646 25.5405401 21.1551541 1.86964422 21.7874996 0"></polygon>
                        <g id="Group-10" transform="translate(18.156250, 0.000000)" fill="#89736E">
                            <path d="M3.80906914,0.00305855851 L0.253826446,0.00305855851 L0.253826446,0.937022507 L3.49194689,0.937022507 L3.80906914,0.00305855851 Z M21.6663321,16.9162565 C20.8664507,21.1342294 19.7989774,24.0092744 14.8498119,24.0092744 L9.44040116,24.0092744 L9.44040116,12.5850854 C13.5539848,12.4722025 14.8858339,13.3689592 15.2296511,17.5125177 L16.2951947,17.5125177 L16.2951947,7.09670709 L15.2296511,7.09670709 C15.0392491,11.0914367 13.0959909,11.6514367 9.44040116,11.6514367 L9.44040116,0.937022507 L13.4767948,0.937022507 C14.7343486,0.937022507 15.8391304,0.971707191 16.7901755,1.23404953 C18.7327905,1.75621168 20.1797814,3.138554 20.9796627,6.72179718 L22.0452063,6.72179718 L21.8184607,0.00305855851 L4.566496,0.00305855851 L4.566496,24.0092744 L0.757812812,24.0092744 L0.757812812,24.9419771 L22.4269752,24.9419771 L22.7698274,16.9162565 L21.6663321,16.9162565 Z" id="Fill-2"></path>
                            <path d="M64.2859536,17.7178195 L64.2859536,25.203405 L63.4677396,25.203405 L61.9406642,23.4508825 C60.2646763,24.8751617 57.7688664,25.5325942 55.5721677,25.5325942 C49.0161638,25.5325942 44.0631388,18.9954772 44.0631388,12.9354322 C44.0631388,8.18804491 46.6335658,3.69669363 50.8034339,1.2514234 C52.2951306,0.410792786 54.1566961,0.0459729722 55.8680626,0.0459729722 C57.9566954,0.0459729722 60.0044817,0.630567557 61.6431611,1.94511708 L63.1326064,0.410792786 L63.951142,0.410792786 L63.951142,7.4568287 L62.870482,7.4568287 C62.3143924,3.47691886 59.4818411,0.958180164 55.8307541,0.958180164 C53.4500859,0.958180164 52.2205136,1.47025223 50.9169675,3.44034228 C49.1666843,6.07164855 49.5388044,10.3063332 49.5388044,13.2636754 C49.5388044,15.3460178 49.4625793,18.1923691 50.1711191,20.566378 C50.8777292,22.9041257 52.6299422,24.4721888 55.4589557,24.6191257 C60.0398605,24.8379545 62.1638719,21.6614681 63.2445319,17.7178195 L64.2859536,17.7178195 Z" id="Fill-4"></path>
                            <polygon id="Fill-6" points="25.8915518 17.1889096 32.1838232 0.108909908 33.2979322 0.108909908 27.8949539 15.1876033 26.1234434 17.0101258"></polygon>
                            <polygon id="Fill-8" points="37.2819975 0.108972971 45.8079544 24.1240176 48.7839505 24.1240176 48.7839505 25.0359095 36.9844943 25.0359095 36.9844943 24.1240176 40.8549295 24.1240176 38.5839354 17.6635222 38.2137451 16.752261 37.0819467 13.4524863 37.2800677 10.7414052 35.999357 10.2882971 32.5168015 0.108972971"></polygon>
                        </g>
                        <g id="Group-13" transform="translate(42.018749, 5.618919)">
                            <mask id="mask-2" fill="white">
                                <use xlink:href="#path-1"></use>
                            </mask>
                            <g id="Clip-12"></g>
                            <path d="M13.1033072,2.27074662 C11.5394348,3.37779923 9.83200621,4.17205141 8.08106619,4.8488841 C5.32936215,6.10963215 2.48682394,6.06221886 0.669187489,10.2517718 C-0.511021675,12.9696035 0.165788262,16.6818415 0.896590546,19.2291126 L1.06460202,19.2291126 C1.04713391,18.957043 1.03315942,18.6534707 1.03315942,18.3212594 C1.03315942,14.5908835 1.89544895,11.527794 4.37941447,9.78973089 C4.37941447,9.78973089 5.40431623,8.93342776 7.43029962,8.2416392 C10.617436,7.15145172 10.8483327,6.87779111 11.6512307,6.25155381 C12.3925138,5.4910319 12.634209,5.04044652 12.6491363,5.01212583 C12.6446898,5.05603882 12.699635,5.94702684 11.801774,6.78678305 C11.2034118,7.34906013 10.1416682,7.93997612 8.30656363,8.62540047 C2.03551144,10.7500887 1.31614283,16.0279199 1.52798339,19.2291126 L1.68741961,19.2291126 C1.97072063,17.0165984 2.26100889,15.1324769 5.45195654,14.0282882 C9.68305086,12.7821778 10.6873085,12.3557764 12.5608429,10.224724 C14.2193607,8.0825342 16.1243377,4.66973187 15.3913122,0.105009303 C14.7176783,0.956221074 13.9338365,1.68460378 13.1033072,2.27074662" id="Fill-11" fill="url(#linearGradient-3)" mask="url(#mask-2)"></path>
                        </g>
                    </g>
                </g>
            </g>
        </g>
    </g>
</svg>